<?xml version="1.0" encoding="UTF-8"?>
<svg width="36px" height="32px" viewBox="0 0 36 32" version="1.1" xmlns="http://www.w3.org/2000/svg" xmlns:xlink="http://www.w3.org/1999/xlink">
    <!-- Generator: Sketch 60.1 (88133) - https://sketch.com -->
    <title>Mark</title>
    <desc>Created with Sketch.</desc>
    <g id="Page-1" stroke="none" stroke-width="1" fill="none" fill-rule="evenodd">
        <g id="Mark" fill="#111111" fill-rule="nonzero">
            <path d="M30.8242988,1.45276325 C27.110554,-0.863026221 22.2214968,-0.316263631 17.8610273,2.42512221 C13.514189,-0.314749053 8.62210265,-0.863026221 4.91290159,1.45276325 C-0.954572851,5.11955613 -1.667939,14.5644634 3.32108031,22.5462884 C6.99847524,28.4334524 12.7493272,31.8806315 17.8686002,31.8170192 C22.9878732,31.8806315 28.7387251,28.4334524 32.4161201,22.5462884 C37.3990811,14.5644634 36.6917732,5.11955613 30.8242988,1.45276325 Z M6.01854339,20.8620779 C4.9895419,19.2308842 4.2133649,17.4533368 3.71638512,15.5898325 C3.27449184,13.9727288 3.10556803,12.2932167 3.21657444,10.6205027 C3.43921738,7.67161975 4.64027758,5.37400521 6.59711212,4.15022633 C8.55394665,2.92644746 11.1408456,2.85526231 13.8958626,3.94727291 C14.3146507,4.11568779 14.7246191,4.30525397 15.1241852,4.51523959 C13.5928912,5.91029241 12.2616198,7.51016263 11.168108,9.26949934 C8.13895233,14.1161483 7.21505986,19.5110745 8.27223518,23.8094463 C7.43005816,22.8999908 6.67548959,21.9131693 6.01854339,20.8620779 L6.01854339,20.8620779 Z M32.0223298,15.5898325 C31.5246908,17.4531064 30.748556,19.2305573 29.7201716,20.8620779 C29.0634891,21.9152349 28.3089154,22.9040916 27.4664798,23.8155046 C28.4115763,19.9609041 27.7693953,15.2399651 25.4520913,10.8113395 C25.3778794,10.6632284 25.2441716,10.5536743 25.084359,10.5100365 C24.9245464,10.4663987 24.753716,10.4927968 24.6145298,10.5826383 L17.3899936,15.0975948 C17.2570094,15.1803482 17.1624502,15.3126484 17.1272097,15.4652624 C17.0919692,15.6178764 17.1189484,15.7782413 17.202186,15.910923 L18.2623904,17.6057356 C18.3451438,17.7387198 18.4774441,17.833279 18.630058,17.8685195 C18.782672,17.90376 18.943037,17.8767808 19.0757187,17.7935433 L23.7587933,14.8688935 C23.9102511,15.3232668 24.0617089,15.7700673 24.1753022,16.2320135 C24.6170558,17.8491432 24.7859773,19.5286318 24.6751129,21.2013433 C24.4524699,24.1517409 23.2514097,26.4493555 21.2945752,27.6731343 C20.2852526,28.2902414 19.128742,28.625007 17.9458437,28.6424641 L17.7943859,28.6424641 C16.6114322,28.6253776 15.4548257,28.2905842 14.4456543,27.6731343 C12.4873052,26.4493555 11.286245,24.1517409 11.0636021,21.2013433 C10.953502,19.5286449 11.1224107,17.8492826 11.5634128,16.2320135 C12.5789779,12.4910936 14.677148,9.13360005 17.5944616,6.58112372 C18.8526743,5.47623058 20.2858161,4.58819449 21.8352795,3.95333122 C24.5827236,2.86132062 27.1741663,2.93250577 29.1325154,4.15628465 C31.0908645,5.38006352 32.2904101,7.67767806 32.513053,10.6265611 C32.6256322,12.2967471 32.4597977,13.9740302 32.0223298,15.5898325 Z M27.889047,30.3857432 L27.889047,30.1752169 C27.8884294,30.1605603 27.893913,30.1463031 27.9041928,30.1358378 C27.9139727,30.1254665 27.9278225,30.1199265 27.9420572,30.1206921 L29.2839732,30.1206921 C29.2982078,30.1199265 29.3120577,30.1254665 29.3218376,30.1358378 C29.3321174,30.1463031 29.337601,30.1605603 29.3369834,30.1752169 L29.3369834,30.3857432 C29.3377906,30.4004302 29.3322786,30.4147614 29.3218376,30.4251222 C29.3120577,30.4354936 29.2982078,30.4410335 29.2839732,30.440268 L28.7932499,30.440268 L28.7932499,31.7624944 C28.7938749,31.7774536 28.7877609,31.791905 28.7765896,31.8018734 C28.7668516,31.8124752 28.7531205,31.8185338 28.7387251,31.8185338 L28.4857906,31.8185338 C28.4714707,31.8181698 28.4578692,31.8121851 28.4479262,31.8018734 C28.4383223,31.7909859 28.4329476,31.7770115 28.4327804,31.7624944 L28.4327804,30.440268 L27.9420572,30.440268 C27.9278225,30.4410335 27.9139727,30.4354936 27.9041928,30.4251222 C27.8937518,30.4147614 27.8882398,30.4004302 27.889047,30.3857432 Z M30.2336134,30.1691586 L30.6077142,31.0173221 L30.9833295,30.1691586 C30.9890908,30.1540031 30.9997529,30.1412085 31.013621,30.1328087 C31.0280765,30.1237174 31.0450545,30.1194729 31.0620875,30.1206921 L31.4634506,30.1206921 C31.4776355,30.1202684 31.4913664,30.1257172 31.5014011,30.1357518 C31.5114358,30.1457865 31.5168846,30.1595175 31.5164608,30.1737023 L31.5164608,31.7655236 C31.5167621,31.7793975 31.5119049,31.7928897 31.5028296,31.803388 C31.4932962,31.8131982 31.4801585,31.8186723 31.4664798,31.8185364 L31.2256619,31.8185364 C31.2115565,31.818573 31.1979847,31.8131443 31.1877975,31.803388 C31.1781726,31.7931167 31.1727656,31.7795993 31.1726517,31.7655236 L31.1726517,30.5629488 L30.780376,31.4368602 C30.7743796,31.4530982 30.7638703,31.4672857 30.7500845,31.4777538 C30.735042,31.4867765 30.7176078,31.491003 30.7001034,31.4898704 L30.5062374,31.4898704 C30.4892319,31.4907889 30.4723436,31.4865669 30.457771,31.4777538 C30.4439851,31.4672857 30.4334758,31.4530982 30.4274794,31.4368602 L30.0352037,30.5629488 L30.0352037,31.7655236 C30.0357681,31.7797244 30.0302603,31.7934939 30.020058,31.803388 C30.0103356,31.8129167 29.99732,31.8183399 29.9837081,31.8185364 L29.7413757,31.8185364 C29.7276969,31.8186723 29.7145592,31.8131982 29.7050258,31.803388 C29.6954009,31.7931167 29.689994,31.7795993 29.6898763,31.7655236 L29.6898763,30.1737023 C29.6897046,30.159267 29.6957792,30.145461 29.7065404,30.1358378 C29.7158521,30.1257065 29.7291396,30.1201701 29.7428902,30.1206921 L30.15637,30.1206921 C30.1733846,30.1196773 30.1903011,30.1239064 30.2048365,30.1328087 C30.2182163,30.1413746 30.2283461,30.1541702 30.2336134,30.1691586 Z" id="Shape"></path>
        </g>
    </g>
</svg>